<svg width="70" height="70" viewBox="0 0 70 70" fill="none" class="icon-title-img"><path d="M15.8458 51.4102V29.2757C15.8458 27.5191 18.7533 26.0952 22.34 26.0952H18.4942C14.9074 26.0952 12 27.5191 12 29.2757V51.4102C12 53.0036 14.6376 54.2952 17.8911 54.2952H21.7369C18.4834 54.2952 15.8458 53.0036 15.8458 51.4102Z" fill="#538FFB"></path><path opacity="0.1" d="M59.6499 60.813L59.65 60.813C61.0301 57.8841 60.5967 54.3078 59.2996 51.1918L59.2994 51.1913C59.2452 51.0608 59.1897 50.9313 59.1327 50.8028C56.9661 45.9285 52.7893 42.1259 47.9259 40.2106C47.8499 40.1809 47.7756 40.152 47.7021 40.1243L47.6994 40.1233C45.8386 39.4114 43.8849 38.991 41.9033 38.8761C41.0256 38.8276 40.5352 38.977 39.6942 39.3216L39.6942 39.3217C38.4497 39.8315 37.129 39.5478 36.0568 38.9499L36.0563 38.9496C35.446 38.6085 34.9064 38.1799 34.4036 37.7455C34.1996 37.5693 34.0072 37.3973 33.8185 37.2286C33.5258 36.967 33.2419 36.7132 32.9368 36.4634C30.5018 34.4692 27.3582 33.4261 24.2462 33.5041L24.2459 33.5041C23.8042 33.5148 23.3632 33.5486 22.9248 33.6053L22.9246 33.6054C22.6495 33.6409 22.3758 33.6857 22.1035 33.7397L22.1016 33.7401C21.8716 33.7849 21.643 33.8368 21.4157 33.8959L21.4154 33.896C20.7964 34.0566 20.1889 34.2615 19.5975 34.5093L19.5965 34.5097C19.4663 34.5639 19.337 34.6203 19.2084 34.6787L19.2079 34.679C18.7699 34.8775 18.3418 35.0967 17.9236 35.3366L17.9212 35.338L17.9212 35.338C17.8244 35.3928 17.7287 35.4489 17.6342 35.5063L17.6325 35.5073L17.548 35.5582L17.5458 35.5595L17.4603 35.6103L17.4577 35.6119L17.4577 35.6119L17.4159 35.6364L17.2651 35.7321L17.2632 35.7333L17.1816 35.7857C17.106 35.8343 17.0377 35.8784 16.9705 35.9244L16.9589 35.9324L16.9469 35.9397C16.9326 35.9484 16.9198 35.9573 16.8948 35.9746C16.8861 35.9807 16.8759 35.9878 16.8636 35.9962L16.8591 35.9994L16.8591 35.9994L16.758 36.0675C16.541 36.2173 16.3269 36.3718 16.1156 36.5309L16.1156 36.5309C14.6411 37.6407 13.3117 38.9902 12.1473 40.4591L59.6499 60.813ZM59.6499 60.813C58.4113 63.4427 55.8719 65.2409 53.1562 66.4489C50.9896 67.4062 48.6996 68.0348 46.358 68.3151L46.3568 68.3153M59.6499 60.813L46.3568 68.3153M46.3568 68.3153C45.9079 68.3701 45.4575 68.4126 45.0056 68.4429L45.0055 68.4429M46.3568 68.3153L45.0055 68.4429M45.0055 68.4429C43.8502 68.5203 42.6912 68.519 41.5361 68.4389L41.5356 68.4389M45.0055 68.4429L41.5356 68.4389M41.5356 68.4389C40.8408 68.3913 40.1484 68.3153 39.4583 68.2109L39.4577 68.2109M41.5356 68.4389L39.4577 68.2109M39.4577 68.2109C37.0603 67.851 34.7227 67.1508 32.5118 66.1299C31.8744 65.8346 31.25 65.5123 30.6384 65.1628L30.638 65.1626M39.4577 68.2109L30.638 65.1626M30.638 65.1626C29.6171 64.5804 28.6388 63.9223 27.711 63.1933C27.5058 63.0319 27.3031 62.8671 27.1031 62.6988L27.103 62.6988M30.638 65.1626L27.103 62.6988M27.103 62.6988L27.0206 62.6295C27.0204 62.6292 27.0201 62.629 27.0198 62.6288C26.9598 62.5778 26.8959 62.523 26.8307 62.4669C26.7341 62.384 26.6345 62.2984 26.5394 62.2187C26.2525 61.9717 25.9479 61.7471 25.6282 61.5467L25.6282 61.5466M27.103 62.6988L25.6282 61.5466M25.6282 61.5466L25.6206 61.542M25.6282 61.5466L25.6206 61.542M25.6206 61.542L25.6185 61.5408C25.6008 61.5301 25.5775 61.5161 25.5525 61.5019C25.4894 61.4643 25.4259 61.4295 25.3625 61.3968C25.229 61.3276 25.092 61.2654 24.9522 61.2105L24.952 61.2104M25.6206 61.542L24.952 61.2104M24.952 61.2104C24.3078 60.958 23.6298 60.8703 22.9617 60.8846M24.952 61.2104L22.6234 60.9001M22.6234 60.9001L22.6241 60.9L22.6321 60.8995C22.7291 60.8928 22.844 60.8848 22.9617 60.8846M22.6234 60.9001C22.4675 60.911 22.3122 60.9274 22.1587 60.948L22.1587 60.948M22.6234 60.9001L22.1587 60.948M22.9617 60.8846C22.9636 60.8846 22.9655 60.8846 22.9674 60.8846V61.3846L22.9563 60.8847C22.9581 60.8847 22.9599 60.8846 22.9617 60.8846ZM22.1587 60.948L22.1543 60.9486M22.1587 60.948L22.1543 60.9486M22.1543 60.9486L22.1009 60.9562L22.0996 60.9564M22.1543 60.9486L22.0996 60.9564M22.0996 60.9564C21.6159 61.0268 21.1378 61.1324 20.6687 61.2724C20.1917 61.4132 19.7115 61.5809 19.2458 61.7435C19.0283 61.8195 18.814 61.8943 18.6046 61.9648L18.6035 61.9652M22.0996 60.9564L18.6035 61.9652M18.6035 61.9652C18.3187 62.0619 18.0371 62.1528 17.7552 62.2337L17.692 62.2517L17.69 62.2523M18.6035 61.9652L17.69 62.2523M17.69 62.2523C17.2978 62.3658 16.8986 62.4518 16.4952 62.5098C15.5956 62.6277 14.6819 62.5518 13.812 62.2868L13.8083 62.2857M17.69 62.2523L13.8083 62.2857M13.8083 62.2857L13.7789 62.277L13.7757 62.2761L13.7223 62.2598L13.6446 62.235C13.6443 62.2349 13.644 62.2348 13.6437 62.2347C13.5155 62.1932 13.3883 62.1478 13.2621 62.0985C13.2618 62.0984 13.2615 62.0982 13.2612 62.0981L13.1807 62.0664C13.0591 62.0182 12.9403 61.9665 12.8242 61.9113L12.8216 61.9101M13.8083 62.2857L12.8216 61.9101M12.8216 61.9101L12.7428 61.8732C12.7421 61.8729 12.7415 61.8726 12.7408 61.8723C12.6188 61.8139 12.4995 61.7523 12.383 61.6874L12.383 61.6874M12.8216 61.9101L12.383 61.6874M12.383 61.6874L12.3765 61.6839M12.383 61.6874L12.3765 61.6839M12.3765 61.6839C12.3516 61.6706 12.3317 61.6592 12.3072 61.6452C12.2915 61.6362 12.2739 61.6262 12.2519 61.6138C12.1267 61.5418 12.0041 61.4664 11.8839 61.3876L11.8837 61.3874M12.3765 61.6839L11.8837 61.3874M11.8837 61.3874C11.7549 61.303 11.629 61.215 11.5059 61.1233L11.5042 61.1221M11.8837 61.3874L11.5042 61.1221M11.5042 61.1221C11.4484 61.0809 11.3931 61.0386 11.3384 60.9951L11.3366 60.9937M11.5042 61.1221L11.3366 60.9937M11.3366 60.9937C11.016 60.7414 10.7157 60.4628 10.4386 60.1605L10.4336 60.155M11.3366 60.9937L10.4336 60.155M10.4336 60.155L10.4285 60.1498M10.4336 60.155L10.4285 60.1498M10.4285 60.1498C10.4225 60.1436 10.4182 60.1388 10.4096 60.1293C10.4055 60.1248 10.4004 60.1192 10.3937 60.1119C10.3195 60.0293 10.2479 59.9465 10.1793 59.8629L10.1784 59.8618M10.4285 60.1498L10.1784 59.8618M10.1784 59.8618C10.1502 59.8276 10.1262 59.7985 10.1032 59.7692L10.1011 59.7666M10.1784 59.8618L10.1011 59.7666M10.1011 59.7666C10.0184 59.6628 9.93856 59.5566 9.86163 59.448L9.86169 59.448M10.1011 59.7666L9.86169 59.448M9.86169 59.448L9.85626 59.4406M9.86169 59.448L9.85626 59.4406M9.85626 59.4406C9.85101 59.4335 9.84733 59.4282 9.84135 59.4197C9.83757 59.4143 9.83287 59.4075 9.82629 59.3982C9.51169 58.9506 9.25067 58.4651 9.04905 57.9524L9.04911 57.9523M9.85626 59.4406L9.04911 57.9523M9.04911 57.9523L9.04597 57.9447M9.04911 57.9523L9.04597 57.9447M9.04597 57.9447C9.04341 57.9385 9.0401 57.9298 9.03587 57.9179L9.03598 57.9178M9.04597 57.9447L9.03598 57.9178M9.03598 57.9178L9.03223 57.9079M9.03598 57.9178L9.03223 57.9079M9.03223 57.9079C8.97055 57.7445 8.91419 57.5782 8.86318 57.4091C8.84285 57.3403 8.82364 57.2704 8.80689 57.2032L8.80476 57.1947M9.03223 57.9079L8.80476 57.1947M8.80476 57.1947L8.80234 57.1863M8.80476 57.1947L8.80234 57.1863M8.80234 57.1863C8.79828 57.1721 8.7941 57.1561 8.78984 57.1386L8.7894 57.1368M8.80234 57.1863L8.7894 57.1368M8.7894 57.1368C8.53239 56.096 8.5 55.0007 8.5 53.861V53.8602V53.8594V53.8586V53.8578V53.8571V53.8563V53.8555V53.8547V53.8539V53.8532V53.8524V53.8516V53.8508V53.85V53.8493V53.8485V53.8477V53.8469V53.8461V53.8454V53.8446V53.8438V53.843V53.8422V53.8414V53.8407V53.8399V53.8391V53.8383V53.8375V53.8368V53.836V53.8352V53.8344V53.8336V53.8329V53.8321V53.8313V53.8305V53.8297V53.829V53.8282V53.8274V53.8266V53.8258V53.8251V53.8243V53.8235V53.8227V53.8219V53.8212V53.8204V53.8196V53.8188V53.818V53.8173V53.8165V53.8157V53.8149V53.8141V53.8134V53.8126V53.8118V53.811V53.8102V53.8095V53.8087V53.8079V53.8071V53.8063V53.8055V53.8048V53.804V53.8032V53.8024V53.8016V53.8009V53.8001V53.7993V53.7985V53.7977V53.797V53.7962V53.7954V53.7946V53.7938V53.7931V53.7923V53.7915V53.7907V53.7899V53.7892V53.7884V53.7876V53.7868V53.786V53.7853V53.7845V53.7837V53.7829V53.7821V53.7814V53.7806V53.7798V53.779V53.7782V53.7775V53.7767V53.7759V53.7751V53.7743V53.7736V53.7728V53.772V53.7712V53.7704V53.7697V53.7689V53.7681V53.7673V53.7665V53.7658V53.765V53.7642V53.7634V53.7626V53.7619V53.7611V53.7603V53.7595V53.7587V53.758V53.7572V53.7564V53.7556V53.7548V53.7541V53.7533V53.7525V53.7517V53.7509V53.7502V53.7494V53.7486V53.7478V53.747V53.7463V53.7455V53.7447V53.7439V53.7431V53.7424V53.7416V53.7408V53.74V53.7392V53.7385V53.7377V53.7369V53.7361V53.7353V53.7346V53.7338V53.733V53.7322V53.7314V53.7307V53.7299V53.7291V53.7283V53.7275V53.7268V53.726V53.7252V53.7244V53.7236V53.7229V53.7221V53.7213V53.7205V53.7197V53.719V53.7182V53.7174V53.7166V53.7158V53.7151V53.7143V53.7135V53.7127V53.7119V53.7112V53.7104V53.7096V53.7088V53.708V53.7073V53.7065V53.7057V53.7049V53.7041V53.7034V53.7026V53.7018V53.701V53.7002V53.6995V53.6987V53.6979V53.6971V53.6963V53.6956V53.6948V53.694V53.6932V53.6924V53.6917V53.6909V53.6901V53.6893V53.6885V53.6878V53.687V53.6862V53.6854V53.6846V53.6839V53.6831V53.6823V53.6815V53.6807V53.68V53.6792V53.6784V53.6776V53.6768V53.6761V53.6753V53.6745V53.6737V53.6729V53.6722V53.6714V53.6706V53.6698V53.6691V53.6683V53.6675V53.6667V53.6659V53.6652V53.6644V53.6636V53.6628V53.662V53.6613V53.6605V53.6597V53.6589V53.6581V53.6574V53.6566V53.6558V53.655V53.6542V53.6535V53.6527V53.6519V53.6511V53.6503V53.6496V53.6488V53.648V53.6472V53.6464V53.6457V53.6449V53.6441V53.6433V53.6425V53.6418V53.641V53.6402V53.6394V53.6386V53.6379V53.6371V53.6363V53.6355V53.6347V53.634V53.6332V53.6324V53.6316V53.6309V53.6301V53.6293V53.6285V53.6277V53.627V53.6262V53.6254V53.6246V53.6238V53.6231V53.6223V53.6215V53.6207V53.6199V53.6192V53.6184V53.6176V53.6168V53.616V53.6153V53.6145V53.6137V53.6129V53.6121V53.6114V53.6106V53.6098V53.609V53.6082V53.6075V53.6067V53.6059V53.6051V53.6044V53.6036V53.6028V53.602V53.6012V53.6005V53.5997V53.5989V53.5981V53.5973V53.5966V53.5958V53.595V53.5942V53.5934V53.5927V53.5919V53.5911V53.5903V53.5895V53.5888V53.588V53.5872V53.5864V53.5856V53.5849V53.5841V53.5833V53.5825V53.5818V53.581V53.5802V53.5794V53.5786V53.5779V53.5771V53.5763V53.5755V53.5747V53.574V53.5732V53.5724V53.5716V53.5708V53.5701V53.5693V53.5685V53.5677V53.5669V53.5662V53.5654V53.5646V53.5638V53.5631V53.5623V53.5615V53.5607V53.5599V53.5592V53.5584V53.5576V53.5568V53.556V53.5553V53.5545V53.5537V53.5529V53.5521V53.5514V53.5506V53.5498V53.549V53.5483V53.5475V53.5467V53.5459V53.5451V53.5444V53.5436V53.5428V53.542V53.5412V53.5405V53.5397V53.5389V53.5381V53.5373V53.5366V53.5358V53.535V53.5342V53.5334V53.5327V53.5319V53.5311V53.5303V53.5296V53.5288V53.528V53.5272V53.5264V53.5257V53.5249V53.5241V53.5233V53.5225V53.5218V53.521V53.5202V53.5194V53.5187V53.5179V53.5171V53.5163V53.5155V53.5148V53.514V53.5132V53.5124V53.5116V53.5109V53.5101V53.5093V53.5085V53.5077V53.507V53.5062V53.5054V53.5046V53.5039V53.5031V53.5023V53.5015V53.5007V53.5V53.4992V53.4984V53.4976V53.4968V53.4961V53.4953V53.4945V53.4937V53.4929V53.4922V53.4914V53.4906V53.4898V53.4891V53.4883V53.4875V53.4867V53.4859V53.4852V53.4844V53.4836V53.4828V53.482V53.4813V53.4805V53.4797V53.4789V53.4782V53.4774V53.4766V53.4758V53.475V53.4743V53.4735V53.4727V53.4719V53.4711V53.4704V53.4696V53.4688V53.468V53.4672V53.4665V53.4657V53.4649V53.4641V53.4634V53.4629C8.50792 51.6147 8.53607 49.7684 8.79531 47.9856L8.80051 47.9498M8.7894 57.1368L8.80051 47.9498M8.80051 47.9498V47.9496M8.80051 47.9498V47.9496M8.80051 47.9496L8.80081 47.9476C8.88699 47.3515 9.0042 46.7606 9.15195 46.1774L9.15202 46.1771C9.30531 45.5706 9.50118 44.9763 9.73806 44.3991C10.3236 42.9827 11.18 41.6816 12.1473 40.4591L8.80051 47.9496ZM22.225 61.4436C22.3694 61.4242 22.5142 61.409 22.6585 61.3988L22.225 61.4436ZM22.225 61.4436L22.1716 61.4512M22.225 61.4436L22.1716 61.4512M22.1716 61.4512C21.7117 61.5182 21.257 61.6186 20.8109 61.7517L22.1716 61.4512Z" fill="#02275D" stroke="#02275D"></path><mask id="path-3-inside-1" fill="white"><path d="M52.3591 36.2715V11C52.3591 9.34314 51.016 8 49.3591 8H19.5478C17.891 8 16.5479 9.34315 16.5479 11V46.0582"></path></mask><path d="M54.3591 36.2715V11H50.3591V36.2715H54.3591ZM49.3591 6H19.5478V10H49.3591V6ZM14.5479 11V46.0582H18.5479V11H14.5479ZM19.5478 6C16.7864 6 14.5479 8.23858 14.5479 11H18.5479C18.5479 10.4477 18.9956 10 19.5478 10V6ZM54.3591 11C54.3591 8.23857 52.1205 6 49.3591 6V10C49.9114 10 50.3591 10.4477 50.3591 11H54.3591Z" fill="#02275D" mask="url(#path-3-inside-1)"></path><path d="M31.292 29.9414L31.292 29.9415C32.0458 31.3697 33.8288 32.2255 35.7106 32.2255H54.7278C55.8107 32.2255 56.7715 32.5529 57.4501 33.0581C58.1287 33.5633 58.5 34.222 58.5 34.906V51.41C58.5 52.0124 58.1731 52.5973 57.5663 53.049C56.9595 53.5008 56.0979 53.7952 55.1246 53.7952H15.8755C14.9022 53.7952 14.0405 53.5009 13.4337 53.0491C12.8269 52.5974 12.5 52.0125 12.5 51.4101V29.2757C12.5 28.5917 12.8713 27.933 13.5499 27.4278C14.2285 26.9226 15.1893 26.5952 16.2722 26.5952H26.9159C28.5473 26.5952 29.9193 27.3402 30.4501 28.346L31.292 29.9414Z" fill="#02275D" stroke="#02275D"></path><path d="M27.068 21.6878C29.2662 21.6878 31.0482 19.9059 31.0482 17.7077C31.0482 15.5095 29.2662 13.7275 27.068 13.7275C24.8699 13.7275 23.0879 15.5095 23.0879 17.7077C23.0879 19.9059 24.8699 21.6878 27.068 21.6878Z" fill="#B3BECE"></path><path d="M47.606 16.5025H34.8696C34.363 16.5025 33.9521 16.0916 33.9521 15.585C33.9521 15.0783 34.363 14.6675 34.8696 14.6675H47.606C48.1129 14.6675 48.5235 15.0783 48.5235 15.585C48.5235 16.0916 48.1129 16.5025 47.606 16.5025Z" fill="#B3BECE"></path><path d="M47.3334 26.3008H42.1071C41.6002 26.3008 41.1896 25.89 41.1896 25.3833C41.1896 24.8767 41.6003 24.4658 42.1071 24.4658H47.3334C47.8403 24.4658 48.2509 24.8767 48.2509 25.3833C48.2509 25.89 47.8403 26.3008 47.3334 26.3008Z" fill="#B3BECE"></path><path d="M47.6062 21.5367H34.8698C34.3631 21.5367 33.9523 21.1258 33.9523 20.6192C33.9523 20.1125 34.3631 19.7017 34.8698 19.7017H47.6062C48.1131 19.7017 48.5237 20.1125 48.5237 20.6192C48.5237 21.1258 48.1131 21.5367 47.6062 21.5367Z" fill="#B3BECE"></path></svg>