<svg width="71" height="71" viewBox="0 0 71 71" fill="none" xmlns="http://www.w3.org/2000/svg">
<path opacity="0.1" d="M53.1022 63.0261C51.7895 65.8131 49.1224 67.6767 46.3595 68.9058C44.1473 69.8833 41.8089 70.5252 39.4175 70.8116C38.9594 70.8675 38.4999 70.9109 38.0389 70.9418C36.861 71.0207 35.6792 71.0194 34.5015 70.9377C33.793 70.8892 33.087 70.8118 32.3835 70.7053C29.9391 70.3384 27.5559 69.6245 25.3022 68.5839C24.6517 68.2825 24.0144 67.9535 23.3903 67.5969C22.3479 67.0025 21.3492 66.3305 20.402 65.5863C20.1924 65.4216 19.9855 65.2533 19.7812 65.0814L19.6972 65.0107C19.5365 64.8745 19.3774 64.7351 19.2157 64.5999C18.9471 64.3684 18.6619 64.1579 18.3626 63.9704C18.3424 63.9582 18.3221 63.946 18.3013 63.9343C18.246 63.9012 18.1896 63.8702 18.1323 63.8407C18.0142 63.7794 17.8931 63.7244 17.7695 63.6759C17.1986 63.4522 16.5872 63.3709 15.9674 63.3846C15.8646 63.3846 15.7618 63.3917 15.6585 63.3988C15.5142 63.409 15.3694 63.4242 15.225 63.4436L15.1716 63.4512C14.7117 63.5182 14.257 63.6186 13.8109 63.7517C13.1219 63.9551 12.4453 64.2094 11.7642 64.4387C11.475 64.5368 11.1854 64.6304 10.8933 64.7143L10.829 64.7326C10.4136 64.8528 9.99064 64.9439 9.56319 65.0051C8.59183 65.1329 7.60525 65.0512 6.66629 64.7651L6.63366 64.7555L6.57336 64.7372L6.49082 64.7107C6.35243 64.666 6.21518 64.617 6.0791 64.5638L5.99655 64.5312C5.86475 64.479 5.73574 64.4229 5.60954 64.3629L5.527 64.3243C5.39519 64.2612 5.26619 64.1946 5.13999 64.1244C5.09451 64.1 5.04954 64.0736 5.00505 64.0487C4.87061 63.9714 4.73881 63.8904 4.60964 63.8056C4.47256 63.7158 4.33845 63.622 4.2073 63.5244C4.14667 63.4797 4.0867 63.4337 4.02739 63.3866C3.68548 63.1176 3.3653 62.8205 3.06999 62.4983C3.05368 62.4815 3.03836 62.4642 3.02304 62.4474C2.94445 62.36 2.86734 62.271 2.79271 62.18C2.76503 62.1464 2.73735 62.1128 2.71017 62.0783C2.62153 61.9671 2.53602 61.8533 2.45364 61.7371C2.44128 61.7203 2.42942 61.703 2.41756 61.6862C2.07985 61.2057 1.79987 60.685 1.58373 60.1353C1.57681 60.1185 1.57039 60.1013 1.56445 60.0845C1.49855 59.9099 1.43842 59.7324 1.38405 59.5521C1.3618 59.4768 1.34055 59.3995 1.32177 59.3243C1.31534 59.3019 1.30941 59.279 1.30397 59.2567C1.03114 58.1517 1 57.003 1 55.861C1 55.7277 1 55.5947 1 55.4618C1.00791 53.6145 1.03559 51.7356 1.30051 49.9137C1.30051 49.901 1.30397 49.8882 1.30595 49.876C1.39462 49.2627 1.51523 48.6547 1.66726 48.0546C1.82638 47.425 2.02973 46.8081 2.27571 46.2088C2.88514 44.7342 3.77136 43.3923 4.75545 42.1485C5.94169 40.652 7.30093 39.271 8.81487 38.1314C9.03235 37.9677 9.25279 37.8087 9.4762 37.6545L9.5795 37.5848C9.61558 37.5599 9.65166 37.534 9.68775 37.5121C9.76189 37.4613 9.83603 37.4135 9.91115 37.3651L9.99518 37.3112L10.1553 37.2095L10.2048 37.1806L10.2903 37.1297L10.3748 37.0789C10.4736 37.0189 10.5736 36.9602 10.6748 36.9029C11.1068 36.6551 11.549 36.4287 12.0014 36.2236C12.1349 36.1629 12.2691 36.1044 12.4042 36.0482C13.0176 35.7912 13.6477 35.5786 14.2899 35.412C14.5271 35.3503 14.7659 35.2961 15.0061 35.2493C15.2894 35.193 15.5743 35.1464 15.8607 35.1095C16.3163 35.0505 16.7746 35.0154 17.2337 35.0042C20.4623 34.9234 23.7235 36.0044 26.2536 38.0765C27.2619 38.9023 28.1679 39.8801 29.3003 40.5132C30.2888 41.0644 31.4459 41.2927 32.5046 40.859C33.3795 40.5005 33.9489 40.3225 34.9315 40.3769C36.9647 40.4948 38.9693 40.926 40.878 41.6563C40.9551 41.6853 41.0322 41.7153 41.1088 41.7453C46.0866 43.7055 50.3665 47.598 52.5897 52.6C52.6483 52.7322 52.7055 52.8654 52.7612 52.9997C54.0873 56.1854 54.5658 59.9202 53.1022 63.0261Z" fill="#02275D"/>
<path d="M62.3061 19.3265C64.132 19.3265 65.6122 17.8463 65.6122 16.0204C65.6122 14.1945 64.132 12.7143 62.3061 12.7143C60.4802 12.7143 59 14.1945 59 16.0204C59 17.8463 60.4802 19.3265 62.3061 19.3265Z" stroke="#4C679C" stroke-miterlimit="10"/>
<path d="M69.887 9.23515L69.0231 8.43349C68.9808 8.39353 68.9303 8.36171 68.8746 8.33985C68.8188 8.318 68.759 8.30655 68.6984 8.30616C68.6379 8.30578 68.5778 8.31646 68.5218 8.3376C68.4657 8.35874 68.4148 8.38992 68.3718 8.42934L62.949 13.3937L60.6559 11.2601C60.6138 11.2206 60.5636 11.1892 60.5083 11.1676C60.4529 11.1461 60.3935 11.1347 60.3335 11.1344C60.2734 11.134 60.2139 11.1445 60.1582 11.1654C60.1026 11.1862 60.0519 11.217 60.0092 11.256L59.1363 12.0534C59.0498 12.1329 59.0009 12.2406 59 12.3532C58.9992 12.4658 59.0465 12.5741 59.1317 12.6547L62.6143 15.8946C62.7004 15.9744 62.8171 16.0196 62.939 16.0204C63.061 16.0212 63.1784 15.9775 63.2656 15.8988L69.8825 9.83639C69.9257 9.79731 69.9602 9.7507 69.9839 9.69925C70.0076 9.6478 70.02 9.59254 70.0204 9.53664C70.0208 9.48075 70.0092 9.42533 69.9863 9.37358C69.9634 9.32184 69.9297 9.27479 69.887 9.23515Z" fill="#02275D"/>
<path d="M62.3061 31.449C64.132 31.449 65.6122 29.9688 65.6122 28.1429C65.6122 26.3169 64.132 24.8367 62.3061 24.8367C60.4802 24.8367 59 26.3169 59 28.1429C59 29.9688 60.4802 31.449 62.3061 31.449Z" stroke="#4C679C" stroke-miterlimit="10"/>
<path d="M62.3061 43.5714C64.132 43.5714 65.6122 42.0912 65.6122 40.2653C65.6122 38.4394 64.132 36.9592 62.3061 36.9592C60.4802 36.9592 59 38.4394 59 40.2653C59 42.0912 60.4802 43.5714 62.3061 43.5714Z" stroke="#4C679C" stroke-miterlimit="10"/>
<path d="M62.3061 55.6939C64.132 55.6939 65.6122 54.2137 65.6122 52.3878C65.6122 50.5618 64.132 49.0816 62.3061 49.0816C60.4802 49.0816 59 50.5618 59 52.3878C59 54.2137 60.4802 55.6939 62.3061 55.6939Z" stroke="#4C679C" stroke-miterlimit="10"/>
<path d="M69.887 21.4903L69.0231 20.5741C68.9808 20.5284 68.9303 20.4921 68.8746 20.4671C68.8188 20.4421 68.759 20.429 68.6984 20.4286C68.6379 20.4282 68.5778 20.4404 68.5218 20.4645C68.4657 20.4887 68.4148 20.5243 68.3718 20.5694L62.949 26.2429L60.6559 23.8046C60.6138 23.7594 60.5636 23.7235 60.5083 23.6989C60.4529 23.6742 60.3935 23.6613 60.3335 23.6608C60.2734 23.6604 60.2139 23.6724 60.1582 23.6963C60.1026 23.7201 60.0519 23.7553 60.0092 23.7998L59.1363 24.7112C59.0498 24.802 59.0009 24.9251 59 25.0538C58.9992 25.1825 59.0465 25.3063 59.1317 25.3983L62.6143 29.1012C62.7004 29.1923 62.8171 29.244 62.939 29.2449C63.061 29.2458 63.1784 29.1959 63.2656 29.1059L69.8825 22.1774C69.9257 22.1328 69.9602 22.0795 69.9839 22.0207C70.0076 21.9619 70.02 21.8987 70.0204 21.8349C70.0208 21.771 70.0092 21.7077 69.9863 21.6485C69.9634 21.5894 69.9297 21.5356 69.887 21.4903Z" fill="#02275D"/>
<path d="M69.887 45.7352L69.0231 44.819C68.9808 44.7733 68.9303 44.7369 68.8746 44.712C68.8188 44.687 68.759 44.6739 68.6984 44.6735C68.6379 44.673 68.5778 44.6852 68.5218 44.7094C68.4657 44.7336 68.4148 44.7692 68.3718 44.8142L62.949 50.4878L60.6559 48.0494C60.6138 48.0043 60.5636 47.9684 60.5083 47.9437C60.4529 47.9191 60.3935 47.9061 60.3335 47.9057C60.2734 47.9053 60.2139 47.9173 60.1582 47.9411C60.1026 47.965 60.0519 48.0002 60.0092 48.0447L59.1363 48.9561C59.0498 49.0469 59.0009 49.17 59 49.2987C58.9992 49.4273 59.0465 49.5512 59.1317 49.6432L62.6143 53.346C62.7004 53.4372 62.8171 53.4889 62.939 53.4898C63.061 53.4907 63.1784 53.4407 63.2656 53.3508L69.8825 46.4223C69.9258 46.3776 69.9602 46.3244 69.9839 46.2656C70.0076 46.2068 70.02 46.1436 70.0204 46.0797C70.0208 46.0159 70.0092 45.9525 69.9864 45.8934C69.9635 45.8342 69.9297 45.7805 69.887 45.7352Z" fill="#02275D"/>
<path d="M15.2293 9.53076C15.1095 9.53063 14.9945 9.57802 14.9096 9.66255C14.8247 9.74708 14.7767 9.86184 14.7763 9.98166L14.665 58.339C14.6649 58.4588 14.7123 58.5738 14.7968 58.6587C14.8814 58.7436 14.9961 58.7916 15.1159 58.792L54.0729 58.8816C54.1927 58.8818 54.3077 58.8344 54.3926 58.7498C54.4776 58.6653 54.5255 58.5505 54.5259 58.4307L54.6372 10.0734C54.6373 9.95357 54.5899 9.83859 54.5054 9.75367C54.4209 9.66875 54.3061 9.62083 54.1863 9.62041L15.2293 9.53076Z" fill="#293165"/>
<path d="M16.6719 10.9803C16.552 10.9802 16.4371 11.0275 16.3521 11.1121C16.2672 11.1966 16.2193 11.3114 16.2189 11.4312L16.1143 56.8961C16.1141 57.0159 16.1615 57.1309 16.246 57.2158C16.3306 57.3008 16.4453 57.3487 16.5652 57.3491L52.6298 57.4321C52.7496 57.4322 52.8646 57.3848 52.9495 57.3003C53.0344 57.2158 53.0823 57.101 53.0828 56.9812L53.1874 11.5163C53.1875 11.3964 53.1401 11.2815 53.0556 11.1965C52.9711 11.1116 52.8563 11.0637 52.7365 11.0633L16.6719 10.9803Z" fill="white"/>
<path d="M47.946 30.7229L21.372 30.6618C21.283 30.6616 21.1948 30.6439 21.1126 30.6097C21.0304 30.5755 20.9557 30.5254 20.8929 30.4623C20.8301 30.3992 20.7803 30.3243 20.7464 30.2419C20.7125 30.1596 20.6951 30.0714 20.6953 29.9823C20.6955 29.8933 20.7133 29.8051 20.7475 29.7229C20.7818 29.6407 20.832 29.5661 20.8951 29.5033C20.9582 29.4405 21.0331 29.3907 21.1155 29.3569C21.1979 29.323 21.2861 29.3057 21.3751 29.306L47.9491 29.3671C48.1288 29.3676 48.301 29.4395 48.4277 29.5669C48.5545 29.6943 48.6255 29.8669 48.6251 30.0466C48.6247 30.2263 48.5529 30.3985 48.4255 30.5254C48.2982 30.6522 48.1257 30.7233 47.946 30.7229Z" fill="#4C679C"/>
<path d="M48.2031 18.0918L30.5732 18.0512C30.3248 18.0507 30.1241 17.7467 30.125 17.3723C30.1259 16.9979 30.3279 16.6949 30.5763 16.6954L48.2063 16.736C48.4547 16.7366 48.6553 17.0406 48.6544 17.4149C48.6536 17.7893 48.4516 18.0924 48.2031 18.0918Z" fill="#4C679C"/>
<path d="M48.1944 21.9785L30.5644 21.9379C30.316 21.9373 30.1154 21.6334 30.1162 21.259C30.1171 20.8846 30.3191 20.5815 30.5675 20.5821L48.1975 20.6227C48.4459 20.6232 48.6465 20.9272 48.6457 21.3016C48.6448 21.676 48.4428 21.979 48.1944 21.9785Z" fill="#4C679C"/>
<path d="M47.9364 35.1067L21.3625 35.0456C21.1828 35.0451 21.0106 34.9732 20.8838 34.8458C20.7571 34.7184 20.6861 34.5458 20.6865 34.3661C20.6869 34.1864 20.7587 34.0142 20.8861 33.8873C21.0134 33.7605 21.1859 33.6894 21.3656 33.6898L47.9396 33.7509C48.1193 33.7514 48.2915 33.8233 48.4182 33.9507C48.545 34.0781 48.616 34.2506 48.6155 34.4304C48.6151 34.6101 48.5434 34.7823 48.416 34.9091C48.2887 35.036 48.1162 35.107 47.9364 35.1067Z" fill="#4C679C"/>
<path d="M47.9264 39.4905L21.3525 39.4294C21.2634 39.4292 21.1753 39.4115 21.0931 39.3773C21.0109 39.343 20.9362 39.2929 20.8734 39.2298C20.8105 39.1667 20.7607 39.0919 20.7268 39.0095C20.6929 38.9272 20.6756 38.839 20.6758 38.7499C20.676 38.6608 20.6937 38.5727 20.728 38.4905C20.7623 38.4083 20.8124 38.3337 20.8756 38.2709C20.9387 38.2081 21.0136 38.1583 21.096 38.1244C21.1783 38.0906 21.2666 38.0733 21.3556 38.0736L47.9296 38.1347C48.0186 38.1349 48.1068 38.1526 48.189 38.1868C48.2712 38.221 48.3458 38.2711 48.4087 38.3342C48.4715 38.3973 48.5213 38.4722 48.5552 38.5545C48.5891 38.6369 48.6065 38.7251 48.6063 38.8142C48.6061 38.9032 48.5883 38.9914 48.554 39.0736C48.5198 39.1558 48.4696 39.2304 48.4065 39.2932C48.3434 39.356 48.2685 39.4058 48.1861 39.4396C48.1037 39.4735 48.0155 39.4908 47.9264 39.4905Z" fill="#4C679C"/>
<path d="M47.9163 43.8743L21.3424 43.8132C21.2533 43.813 21.1652 43.7952 21.0831 43.761C21.0009 43.7267 20.9263 43.6766 20.8635 43.6135C20.8007 43.5504 20.7509 43.4756 20.717 43.3932C20.6831 43.3109 20.6658 43.2227 20.666 43.1337C20.6662 43.0447 20.684 42.9565 20.7182 42.8744C20.7525 42.7922 20.8026 42.7176 20.8657 42.6548C20.9288 42.592 21.0036 42.5422 21.0859 42.5083C21.1683 42.4745 21.2565 42.4571 21.3455 42.4573L47.9194 42.5185C48.0992 42.519 48.2713 42.5909 48.3981 42.7183C48.5248 42.8457 48.5958 43.0182 48.5954 43.198C48.595 43.3777 48.5232 43.5499 48.3959 43.6767C48.2685 43.8036 48.096 43.8746 47.9163 43.8743Z" fill="#4C679C"/>
<path d="M47.9062 48.2581L21.3322 48.197C21.1525 48.1965 20.9803 48.1246 20.8536 47.9972C20.7268 47.8698 20.6558 47.6972 20.6563 47.5175C20.6567 47.3378 20.7284 47.1656 20.8558 47.0387C20.9831 46.9119 21.1556 46.8408 21.3354 46.8412L47.9093 46.9023C48.089 46.9028 48.2612 46.9747 48.3879 47.1021C48.5147 47.2295 48.5857 47.402 48.5853 47.5818C48.5849 47.7615 48.5131 47.9337 48.3857 48.0605C48.2584 48.1874 48.0859 48.2584 47.9062 48.2581Z" fill="#4C679C"/>
<path d="M47.8948 52.6419L21.3209 52.5808C21.2319 52.5806 21.1437 52.5628 21.0616 52.5286C20.9794 52.4943 20.9048 52.4442 20.842 52.3811C20.7151 52.2537 20.6441 52.0811 20.6445 51.9013C20.6449 51.7215 20.7168 51.5492 20.8442 51.4224C20.9716 51.2956 21.1442 51.2245 21.324 51.2249L47.8979 51.2861C47.987 51.2863 48.0751 51.304 48.1574 51.3382C48.2396 51.3724 48.3142 51.4225 48.3771 51.4856C48.4399 51.5487 48.4897 51.6236 48.5236 51.7059C48.5575 51.7883 48.5749 51.8765 48.5747 51.9656C48.5744 52.0546 48.5567 52.1428 48.5224 52.225C48.4881 52.3072 48.438 52.3818 48.3749 52.4446C48.3117 52.5074 48.2368 52.5572 48.1545 52.591C48.0721 52.6249 47.9839 52.6422 47.8948 52.6419Z" fill="#4C679C"/>
<path d="M24.291 22.9177C26.2629 22.9177 27.8613 21.3192 27.8613 19.3474C27.8613 17.3755 26.2629 15.777 24.291 15.777C22.3192 15.777 20.7207 17.3755 20.7207 19.3474C20.7207 21.3192 22.3192 22.9177 24.291 22.9177Z" fill="#293165"/>
<path d="M44.7601 18.2964L44.76 9.84902C44.7785 8.58774 44.2975 7.37032 43.422 6.4622C42.5465 5.55407 41.3475 5.02889 40.0864 5.00116C38.8253 4.97342 37.6043 5.44538 36.6898 6.31413C35.7752 7.18288 35.2412 8.37798 35.2041 9.63885H36.256C36.2933 8.67573 36.7018 7.76441 37.3959 7.09569C38.0901 6.42698 39.016 6.05274 39.9798 6.05132C39.998 6.05132 40.0164 6.05148 40.0346 6.05173C41.0242 6.0676 41.967 6.47565 42.6559 7.18623C43.3449 7.89681 43.7235 8.85181 43.7088 9.84142V18.3008C43.709 18.3224 43.709 18.3439 43.7088 18.3634C43.7 19.021 43.4329 19.6487 42.9652 20.1109C42.4974 20.5732 41.8665 20.8328 41.2089 20.8336C41.1986 20.8336 41.1884 20.8336 41.1781 20.8335C40.5143 20.8243 39.8812 20.552 39.4181 20.0763C38.955 19.6007 38.6996 18.9606 38.7082 18.2967L38.7139 9.90626C38.7192 9.57641 38.8536 9.26179 39.0883 9.03C39.323 8.7982 39.6393 8.66775 39.9692 8.66667C40.2991 8.66558 40.6162 8.79396 40.8525 9.02421C41.0887 9.25445 41.2252 9.56819 41.2326 9.898V16.3054C41.2326 16.4448 41.288 16.5785 41.3866 16.6771C41.4852 16.7757 41.6189 16.831 41.7583 16.831C41.8977 16.831 42.0314 16.7757 42.13 16.6771C42.2286 16.5785 42.284 16.4448 42.284 16.3054L42.2839 9.88968C42.2743 9.28249 42.0261 8.70347 41.593 8.27784C41.1598 7.85221 40.5766 7.61418 39.9693 7.61523C39.3621 7.61627 38.7796 7.85631 38.3479 8.28343C37.9163 8.71055 37.6701 9.29042 37.6626 9.89763L37.6569 18.29C37.6465 19.2317 38.0101 20.139 38.6678 20.8129C39.3256 21.4868 40.2238 21.8722 41.1654 21.8847C41.1801 21.8849 41.1944 21.885 41.2091 21.885C42.1435 21.8836 43.0398 21.5145 43.7043 20.8575C44.3688 20.2006 44.748 19.3086 44.7601 18.3743C44.7604 18.3469 44.7603 18.3194 44.7601 18.2964Z" fill="#293165"/>
<g clip-path="url(#clip0)">
<path fill-rule="evenodd" clip-rule="evenodd" d="M10.2997 32.3036C10.6209 32.2643 10.9638 32.2782 11.2626 32.4051C11.8979 32.675 12.0785 33.4262 12.0698 34.0368C12.0604 34.694 11.9209 35.4118 12.4201 35.9413C12.6496 36.1847 12.9351 36.371 13.1604 36.6189C13.4011 36.8839 13.5901 37.187 13.7299 37.5125C13.9868 38.1104 14.1128 38.8135 13.878 39.4407C13.6712 39.9929 13.1509 40.4913 13.2633 41.1192C13.3806 41.7742 14.0404 42.275 14.4529 42.7629C14.9198 43.315 15.3496 44.0207 15.4202 44.7448C15.488 45.4387 15.1862 46.1405 14.723 46.6651C13.7977 47.7132 12.4067 48.227 11.0042 48.2238C10.4087 48.2225 9.73449 48.1955 9.22062 47.8753C9.06179 47.7763 8.97801 47.6652 8.88359 47.5108C8.79894 47.3723 8.68711 47.2823 8.55768 47.1843C8.27331 46.9692 8.06794 46.6791 7.93688 46.3545C7.42795 45.0936 7.83471 43.5337 8.54711 42.414C8.71591 42.1488 8.85411 41.8935 8.77211 41.5773C8.68653 41.2472 8.4762 40.9495 8.29017 40.6658C8.10634 40.3854 7.89648 40.1179 7.7528 39.8147C7.60232 39.4971 7.55994 39.1645 7.58653 38.8169C7.6365 38.164 7.91811 37.5615 8.3168 37.0364C8.70081 36.5306 9.15171 36.0467 9.15272 35.3839C9.15383 34.6815 8.68466 34.0567 8.88453 33.3426C8.96729 33.0469 9.13352 32.7435 9.4014 32.5662C9.65831 32.3962 9.99752 32.3406 10.2997 32.3036Z" fill="#DDE3E9"/>
<path fill-rule="evenodd" clip-rule="evenodd" d="M10.09 33.4265C10.0961 33.3322 10.2079 33.2756 10.2959 33.3002C10.4117 33.3326 10.4095 33.441 10.4064 33.5375C10.3971 33.8342 10.44 34.1225 10.5112 34.4104C10.6593 35.0089 10.933 35.5604 11.1499 36.1353C11.3665 36.7097 11.4682 37.3028 11.3411 37.9107C11.2213 38.4838 11.0331 39.0421 10.9105 39.6159C10.8024 40.1217 10.6874 40.655 10.852 41.1595C11.0103 41.6451 11.3605 42.0406 11.6126 42.4794C12.1346 43.3878 12.3662 44.3956 12.3971 45.4327C12.4115 45.9143 12.3986 46.4003 12.2869 46.8727C12.2227 47.1447 12.1364 47.5122 11.9035 47.7C11.7961 47.7866 11.6125 47.8165 11.5221 47.6883C11.4373 47.568 11.5117 47.3818 11.5386 47.2536C11.6553 46.6987 11.6787 46.1316 11.6508 45.5682C11.6238 45.0224 11.5594 44.4775 11.3877 43.9563C11.2285 43.4726 10.9865 43.0381 10.7017 42.6149C10.4115 42.1837 10.1098 41.7516 9.98984 41.2406C9.868 40.7217 9.96698 40.1936 10.0993 39.6846C10.2393 39.1462 10.4226 38.6232 10.6122 38.0994C10.7969 37.5889 10.8623 37.106 10.7604 36.5717C10.5589 35.5163 10.0198 34.5256 10.09 33.4265Z" fill="#293165"/>
<path fill-rule="evenodd" clip-rule="evenodd" d="M18.7826 33.5843C19.1802 33.7051 19.575 33.9 19.8584 34.2057C20.461 34.8557 20.2761 35.8381 19.9435 36.5557C19.5854 37.328 19.0428 38.1043 19.3487 38.9904C19.4893 39.3978 19.7257 39.7667 19.859 40.1772C20.0015 40.6159 20.063 41.0727 20.0552 41.5305C20.0407 42.3713 19.8172 43.2685 19.2105 43.8879C18.6764 44.4333 17.803 44.7519 17.6032 45.553C17.3948 46.3887 17.9043 47.3245 18.1305 48.1162C18.3865 49.0123 18.518 50.0707 18.2184 50.9638C17.9314 51.8197 17.2068 52.4925 16.3866 52.8717C14.7477 53.6294 12.8449 53.5128 11.2015 52.7788C10.5038 52.4671 9.72728 52.0842 9.29369 51.4379C9.15969 51.2381 9.12006 51.0631 9.09086 50.8314C9.06468 50.6236 8.98108 50.4588 8.881 50.2756C8.66109 49.873 8.57337 49.4231 8.59108 48.971C8.66003 47.2148 9.96089 45.5819 11.3878 44.6286C11.7258 44.4028 12.0227 44.1729 12.0935 43.7562C12.1675 43.3213 12.078 42.8597 12.0096 42.4273C11.9421 42 11.8372 41.5744 11.8288 41.141C11.82 40.6871 11.946 40.2717 12.1607 39.8744C12.5641 39.1283 13.2126 38.5624 13.9575 38.149C14.675 37.7508 15.4595 37.4132 15.8106 36.63C16.1829 35.7999 15.9625 34.8167 16.5741 34.0762C16.8273 33.7696 17.1825 33.4973 17.5903 33.4271C17.9815 33.3598 18.4087 33.4707 18.7826 33.5843Z" fill="#DDE3E9"/>
<path fill-rule="evenodd" clip-rule="evenodd" d="M17.9705 34.957C18.0269 34.8484 18.1873 34.8401 18.2773 34.9154C18.3958 35.0146 18.3365 35.1417 18.2824 35.2544C18.1162 35.6008 18.0155 35.9648 17.9482 36.3431C17.8082 37.1296 17.8397 37.9262 17.7924 38.7208C17.7451 39.5148 17.5537 40.2705 17.087 40.9237C16.647 41.5395 16.1348 42.1019 15.6912 42.7171C15.3001 43.2594 14.8866 43.8307 14.815 44.5144C14.7461 45.1726 14.9487 45.8246 15.0139 46.4765C15.1488 47.8261 14.8923 49.1411 14.3858 50.3855C14.1506 50.9634 13.8812 51.5321 13.5035 52.0329C13.2861 52.3213 12.9928 52.7113 12.6222 52.8115C12.4514 52.8577 12.221 52.7968 12.1824 52.5976C12.1461 52.4106 12.3306 52.2292 12.4291 52.0915C12.8559 51.4956 13.1801 50.8363 13.4423 50.1544C13.6963 49.4939 13.906 48.8148 13.9781 48.1075C14.045 47.4511 13.9893 46.8096 13.8777 46.1591C13.764 45.4962 13.6374 44.8262 13.7645 44.1582C13.8936 43.4797 14.2857 42.9063 14.7068 42.3729C15.1522 41.8087 15.6402 41.2856 16.1359 40.7647C16.619 40.2571 16.9482 39.7195 17.1086 39.0334C17.4253 37.6778 17.3132 36.2218 17.9705 34.957Z" fill="#293165"/>
<path fill-rule="evenodd" clip-rule="evenodd" d="M6.49229 38.5703C7.15334 38.5703 7.73452 38.921 8.13499 39.4186C8.60377 40.0012 8.69845 40.7127 8.88881 41.4071C8.98353 41.7526 9.14644 42.0956 9.43194 42.3304C9.69161 42.5439 10.0213 42.5866 10.3321 42.691C10.9533 42.8994 11.4549 43.4016 11.6529 44.0144C11.8946 44.7618 11.6386 45.5156 11.6827 46.2731C11.7232 46.9688 12.4085 47.4028 12.9598 47.7362C13.5035 48.0651 13.9933 48.3729 14.157 49.0135C14.3307 49.6929 14.3889 50.4513 14.1484 51.1225C13.748 52.2401 12.5761 52.7322 11.4438 52.8085C10.4162 52.8777 9.12403 52.769 8.35229 52.0224C7.89049 51.5756 7.72325 50.9508 7.744 50.3291C7.75689 49.9426 7.8334 49.5596 7.93232 49.186C8.00243 48.9212 8.09715 48.6576 8.12413 48.384C8.19586 47.6561 7.5237 47.5163 6.95155 47.3165C6.22451 47.0625 5.71551 46.5827 5.36158 45.9143C5.03196 45.292 4.89367 44.5934 5.09126 43.9083C5.19218 43.5584 5.37521 43.241 5.62345 42.971C5.73273 42.8522 5.88674 42.7531 5.98537 42.6282C6.07743 42.5116 6.05739 42.3606 6.02567 42.224C5.87897 41.5932 5.42191 41.0709 5.25846 40.4413C5.11088 39.873 5.19812 39.1657 5.71726 38.799C5.94155 38.6406 6.21814 38.572 6.49229 38.5703Z" fill="#4C679C"/>
<path fill-rule="evenodd" clip-rule="evenodd" d="M7.39288 40.2138C8.09353 40.9608 8.28397 41.9743 8.33986 42.9566C8.37117 43.5075 8.33859 44.0885 8.50028 44.6228C8.63863 45.0801 8.96296 45.4296 9.29728 45.76C9.97025 46.4251 10.7208 47.1012 10.9176 48.0638C11.0331 48.6286 10.9551 49.2121 11.1147 49.7707C11.2598 50.2785 11.5153 50.7774 11.8261 51.2062C12.0763 51.5515 12.4023 51.8159 12.6758 52.1378C12.7593 52.236 12.8788 52.3807 12.8444 52.5194C12.8041 52.6818 12.5973 52.7332 12.4506 52.7077C12.1087 52.6482 11.8208 52.3214 11.5972 52.0838C11.2702 51.7363 10.9923 51.3626 10.7665 50.9434C10.5158 50.4778 10.3139 49.9838 10.2277 49.4615C10.1382 48.9197 10.1827 48.355 9.97834 47.8349C9.63441 46.9599 8.8002 46.4436 8.19706 45.7616C7.4456 44.9118 7.55767 43.8541 7.63464 42.8088C7.67692 42.2343 7.71895 41.5856 7.42893 41.0611C7.31822 40.8608 7.07139 40.6742 7.02379 40.4466C6.98019 40.2381 7.21815 40.0274 7.39288 40.2138Z" fill="#293165"/>
<path fill-rule="evenodd" clip-rule="evenodd" d="M8.14062 52.4894C8.14067 56.7615 8.83722 59 12.5146 59C16.1919 59 16.8884 56.7615 16.8885 52.4894H8.14062Z" fill="#293165"/>
</g>
<defs>
<clipPath id="clip0">
<rect width="15.2526" height="26.7158" fill="white" transform="translate(5 32.2842)"/>
</clipPath>
</defs>
</svg>
