<svg width="70" height="70" viewBox="0 0 70 70" fill="none"><path opacity="0.1" d="M53.7115 8.10269C40.2618 8.10269 31.0257 1.13574 24.5448 1.13574C18.064 1.13574 4.45288 4.8613 4.45288 34.6755C4.45288 64.4896 22.7637 68.8646 29.892 68.8646C63.2723 68.8666 77.5309 8.10269 53.7115 8.10269V8.10269Z" fill="#02275D"></path><path d="M39.375 51.0415H17.0139C14.8653 51.0415 13.125 49.3012 13.125 47.1526V20.9026C13.125 18.754 14.8653 17.0137 17.0139 17.0137H39.375C41.5236 17.0137 43.2639 18.754 43.2639 20.9026V47.1526C43.2639 49.3012 41.5236 51.0415 39.375 51.0415Z" fill="#F3F3F1"></path><path d="M41.8678 55.8444L36.0248 56.875L37.0553 51.0319L51.4928 36.5944C52.2531 35.8342 53.1398 35.4919 53.8981 36.2503L56.3034 38.6555C57.0637 39.4158 57.0637 40.6467 56.3034 41.405L41.8678 55.8444Z" fill="#02275D"></path><path d="M41.4323 51.0318L55.057 37.4071L53.9001 36.2501C53.1398 35.4899 52.2531 35.834 51.4948 36.5943L37.0573 51.0318L36.0267 56.8749L40.5417 56.0776L41.4323 51.0318Z" fill="#02275D"></path><path d="M23.0588 47.1143V20.8857C23.0588 18.7389 27.06 17 32 17H21.9412C17.0012 17 13 18.7389 13 20.8857V47.1143C13 49.2611 17.0012 51 21.9412 51H32C27.06 51 23.0588 49.2611 23.0588 47.1143Z" fill="#B3BECE"></path><path d="M36.0247 58.3331C35.6417 58.3331 35.2683 58.1815 34.9942 57.9054C34.6578 57.569 34.5061 57.0887 34.5897 56.622L35.6203 50.779C35.6728 50.4834 35.8147 50.2112 36.0247 50.0012L50.4622 35.5637C51.0767 34.9492 51.7281 34.5642 52.3989 34.4262C53.3264 34.2317 54.2247 34.5137 54.9306 35.2195L57.3358 37.6248C58.6619 38.9529 58.6619 41.1092 57.3358 42.4373L42.9003 56.8748C42.6883 57.0848 42.4161 57.2287 42.1225 57.2792L36.2794 58.3098C36.1939 58.3254 36.1103 58.3331 36.0247 58.3331V58.3331ZM38.4125 51.7376L37.8233 55.0762L41.1619 54.487L55.2728 40.3742C55.4614 40.1837 55.4614 39.8765 55.2728 39.6859L52.885 37.2981C52.8656 37.3351 52.7197 37.4265 52.5233 37.6229L38.4125 51.7376Z" fill="#02275D"></path><path d="M31.1306 52.5001H17.014C14.0642 52.5001 11.6667 50.1026 11.6667 47.1529V20.9029C11.6667 17.9532 14.0642 15.5557 17.014 15.5557H39.3751C42.3248 15.5557 44.7223 17.9532 44.7223 20.9029V36.5751H41.8056V20.9029C41.8056 19.5632 40.7148 18.4723 39.3751 18.4723H17.014C15.6742 18.4723 14.5834 19.5632 14.5834 20.9029V47.1529C14.5834 48.4926 15.6742 49.5834 17.014 49.5834H31.1306V52.5001Z" fill="#02275D"></path><path d="M17.5 11.6665H20.4167V21.3887H17.5V11.6665Z" fill="#02275D"></path><path d="M26.736 11.6665H29.6526V21.3887H26.736V11.6665Z" fill="#02275D"></path><path d="M35.9723 11.6665H38.889V21.3887H35.9723V11.6665Z" fill="#02275D"></path><path d="M18.9583 35H33.5416V37.9167H18.9583V35Z" fill="#02275D"></path><path d="M18.9583 27.2222H27.7083V30.1388H18.9583V27.2222Z" fill="#02275D"></path></svg>