<svg width="70" height="70" viewBox="0 0 70 70" fill="none"><path d="M53.7115 61.8977C40.2618 61.8977 31.0257 68.8646 24.5448 68.8646C18.064 68.8646 4.45288 65.1391 4.45288 35.3249C4.45288 5.51073 22.7637 1.13379 29.892 1.13379C63.2723 1.13379 77.5309 61.8977 53.7115 61.8977Z" fill="#E6E9EF"></path><path d="M38.4028 56.875H15.0694C13.9961 56.875 13.125 56.0039 13.125 54.9306V15.4195C13.125 14.2178 14.2042 13.3039 15.3883 13.5022L36.7772 16.7436C37.7144 16.8992 38.4028 17.712 38.4028 18.6609V56.875Z" fill="#F3F3F1"></path><path d="M54.9306 56.875H38.4028V30.625L55.3525 34.1756C56.2431 34.3739 56.875 35.1614 56.875 36.0733V54.9306C56.875 56.0039 56.0039 56.875 54.9306 56.875Z" fill="#02275D"></path><path d="M30.625 56.389H21.875V48.1251C21.875 47.0518 22.7461 46.1807 23.8194 46.1807H28.6806C29.7539 46.1807 30.625 47.0518 30.625 48.1251V56.389Z" fill="#02275D"></path><path d="M38.4028 30.625V56.875H42.7778V31.5408L38.4028 30.625Z" fill="#B3BECE"></path><path d="M28.1944 46.1807H23.8194C22.7461 46.1807 21.875 47.0518 21.875 48.1251V56.389H26.25V48.1251C26.25 47.0518 27.1211 46.1807 28.1944 46.1807Z" fill="#B3BECE"></path><path d="M17.5 54.9305V15.4194C17.5 14.8127 17.7781 14.2819 18.2019 13.928L15.3883 13.5022C14.2042 13.3039 13.125 14.2197 13.125 15.4194V54.9305C13.125 56.0039 13.9961 56.875 15.0694 56.875H19.4444C18.3711 56.875 17.5 56.0039 17.5 54.9305Z" fill="#B3BECE"></path><path d="M38.4026 58.3333H15.0693C13.1929 58.3333 11.6665 56.8069 11.6665 54.9305V15.4214C11.6665 14.418 12.1059 13.473 12.8701 12.8236C13.6343 12.1761 14.6376 11.8941 15.6273 12.0633L36.9948 15.3008C38.6651 15.5789 39.8609 16.9905 39.8609 18.6608V56.875C39.8609 57.68 39.2076 58.3333 38.4026 58.3333ZM15.0712 14.9352C14.9137 14.9352 14.8087 15.0033 14.7562 15.048C14.6921 15.1044 14.5832 15.225 14.5832 15.4214V54.9305C14.5832 55.1989 14.8009 55.4166 15.0693 55.4166H36.9443V18.6608C36.9443 18.4216 36.7732 18.2194 36.5379 18.1805L15.1704 14.945C15.1354 14.9391 15.1023 14.9352 15.0712 14.9352V14.9352Z" fill="#02275D"></path><path d="M54.9307 58.3332H38.4029C37.5979 58.3332 36.9446 57.6799 36.9446 56.8749V30.6249C36.9446 30.1854 37.1429 29.7693 37.4832 29.4932C37.8235 29.2152 38.2687 29.1063 38.7004 29.1977L55.6501 32.7482C57.2368 33.1002 58.3335 34.4652 58.3335 36.0732V54.9304C58.3335 56.8068 56.8071 58.3332 54.9307 58.3332V58.3332ZM39.8612 55.4166H54.9307C55.199 55.4166 55.4168 55.1988 55.4168 54.9304V36.0732C55.4168 35.8438 55.2612 35.6493 55.0376 35.5988L39.8612 32.4196V55.4166Z" fill="#02275D"></path><path d="M30.6248 57.8472H21.8748C21.0698 57.8472 20.4165 57.1938 20.4165 56.3888V48.1249C20.4165 46.2486 21.9429 44.7222 23.8193 44.7222H28.6804C30.5568 44.7222 32.0832 46.2486 32.0832 48.1249V56.3888C32.0832 57.1938 31.4298 57.8472 30.6248 57.8472ZM23.3332 54.9305H29.1665V48.1249C29.1665 47.8566 28.9487 47.6388 28.6804 47.6388H23.8193C23.5509 47.6388 23.3332 47.8566 23.3332 48.1249V54.9305Z" fill="#02275D"></path><path d="M18.4722 20.4165H24.3055V23.3332H18.4722V20.4165Z" fill="black"></path><path d="M28.1946 20.4165H34.0279V23.3332H28.1946V20.4165Z" fill="black"></path><path d="M18.4722 26.25H24.3055V29.1667H18.4722V26.25Z" fill="black"></path><path d="M28.1946 26.25H34.0279V29.1667H28.1946V26.25Z" fill="black"></path><path d="M18.4722 32.0835H24.3055V35.0002H18.4722V32.0835Z" fill="black"></path><path d="M28.1946 32.0835H34.0279V35.0002H28.1946V32.0835Z" fill="black"></path><path d="M18.4722 37.9165H24.3055V40.8332H18.4722V37.9165Z" fill="black"></path><path d="M28.1946 37.9165H34.0279V40.8332H28.1946V37.9165Z" fill="black"></path><path d="M44.7222 37.9165H50.5555V40.8332H44.7222V37.9165Z" fill="white"></path><path d="M44.7222 43.75H50.5555V46.6667H44.7222V43.75Z" fill="white"></path><path d="M44.7222 49.5835H50.5555V52.5002H44.7222V49.5835Z" fill="white"></path><path d="M3.88892 56.8748C3.88892 56.0694 4.54184 55.4165 5.34725 55.4165H64.6528C65.4582 55.4165 66.1111 56.0694 66.1111 56.8748V56.8748C66.1111 57.6803 65.4582 58.3332 64.6528 58.3332H5.34725C4.54184 58.3332 3.88892 57.6803 3.88892 56.8748V56.8748Z" fill="#02275D"></path></svg>