<svg width="70" height="70" viewBox="0 0 70 70" fill="none"><path opacity="0.1" d="M62.0514 59.5896C60.6644 62.5321 57.8463 64.4997 54.927 65.7973C52.5896 66.8294 50.1188 67.5071 47.592 67.8095C47.1081 67.8685 46.6226 67.9143 46.1355 67.9469C44.8909 68.0303 43.6422 68.0289 42.3978 67.9426C41.6492 67.8914 40.9033 67.8096 40.16 67.6973C37.5771 67.3099 35.0591 66.5561 32.6778 65.4575C31.9905 65.1393 31.3171 64.792 30.6577 64.4154C29.5563 63.7879 28.501 63.0784 27.5002 62.2927C27.2788 62.1188 27.0601 61.9411 26.8443 61.7596L26.7555 61.685C26.5858 61.5411 26.4176 61.394 26.2468 61.2512C25.963 61.0068 25.6617 60.7846 25.3454 60.5866C25.324 60.5737 25.3026 60.5608 25.2807 60.5485C25.2222 60.5136 25.1626 60.4808 25.1021 60.4497C24.9773 60.385 24.8493 60.3269 24.7187 60.2757C24.1155 60.0395 23.4695 59.9536 22.8146 59.9681C22.706 59.9681 22.5974 59.9756 22.4882 59.9831C22.3357 59.9939 22.1827 60.01 22.0302 60.0304L21.9738 60.0384C21.4879 60.1091 21.0074 60.2152 20.5361 60.3557C19.8081 60.5705 19.0931 60.8389 18.3735 61.081C18.0679 61.1846 17.7619 61.2834 17.4533 61.372L17.3854 61.3913C16.9464 61.5183 16.4995 61.6144 16.0479 61.6791C15.0216 61.814 13.9791 61.7277 12.987 61.4257L12.9526 61.4155L12.8888 61.3962L12.8016 61.3682C12.6554 61.321 12.5104 61.2693 12.3666 61.2131L12.2794 61.1787C12.1401 61.1236 12.0038 61.0644 11.8705 61.001L11.7832 60.9602C11.644 60.8937 11.5077 60.8233 11.3743 60.7492C11.3263 60.7235 11.2788 60.6956 11.2318 60.6693C11.0897 60.5876 10.9504 60.5021 10.814 60.4126C10.6691 60.3178 10.5274 60.2188 10.3888 60.1158C10.3248 60.0685 10.2614 60.02 10.1988 59.9703C9.83749 59.6862 9.49919 59.3726 9.18716 59.0324C9.16993 59.0147 9.15374 58.9964 9.13755 58.9787C9.05451 58.8863 8.97304 58.7924 8.89418 58.6963C8.86494 58.6609 8.83569 58.6254 8.80697 58.5889C8.71331 58.4715 8.62296 58.3515 8.53592 58.2287C8.52287 58.211 8.51033 58.1927 8.4978 58.175C8.14097 57.6677 7.84514 57.1179 7.61677 56.5376C7.60946 56.5199 7.60267 56.5016 7.5964 56.4839C7.52677 56.2996 7.46323 56.1122 7.40578 55.9218C7.38228 55.8424 7.35983 55.7608 7.33998 55.6813C7.33319 55.6577 7.32693 55.6335 7.32118 55.6099C7.0329 54.4433 7 53.2305 7 52.0248C7 51.8841 7 51.7436 7 51.6033C7.00836 49.6529 7.0376 47.6692 7.31752 45.7457C7.31752 45.7323 7.32118 45.7188 7.32327 45.7059C7.41696 45.0584 7.5444 44.4164 7.70503 43.7829C7.87315 43.1182 8.08801 42.4669 8.34791 41.8341C8.99184 40.2772 9.92823 38.8605 10.968 37.5473C12.2214 35.9673 13.6576 34.5092 15.2572 33.3061C15.487 33.1333 15.7199 32.9654 15.956 32.8026L16.0651 32.729C16.1033 32.7027 16.1414 32.6753 16.1795 32.6522C16.2578 32.5986 16.3362 32.5481 16.4156 32.4971L16.5043 32.4402L16.6735 32.3328L16.7258 32.3022L16.8161 32.2485L16.9054 32.1948C17.0099 32.1315 17.1155 32.0696 17.2224 32.0091C17.6789 31.7475 18.1461 31.5084 18.6241 31.2918C18.7651 31.2278 18.907 31.166 19.0498 31.1066C19.6978 30.8353 20.3636 30.6109 21.0421 30.435C21.2928 30.3699 21.5451 30.3126 21.7989 30.2632C22.0983 30.2038 22.3993 30.1546 22.7018 30.1156C23.1833 30.0533 23.6675 30.0162 24.1526 30.0045C27.5639 29.9191 31.0097 31.0605 33.6831 33.2482C34.7485 34.12 35.7057 35.1524 36.9022 35.8208C37.9467 36.4027 39.1693 36.6438 40.2879 36.1858C41.2123 35.8074 41.8139 35.6195 42.8521 35.6769C45.0005 35.8013 47.1185 36.2566 49.1353 37.0276C49.2167 37.0582 49.2982 37.0899 49.3792 37.1216C54.6387 39.1912 59.1608 43.3008 61.5099 48.5819C61.5718 48.7215 61.6322 48.8621 61.6911 49.0039C63.0923 52.3673 63.5978 56.3105 62.0514 59.5896Z" fill="#02275D"></path><g clip-path="url(#clip0)"><path d="M51.016 5.65674H17.9839C16.5552 5.65674 15.397 6.81497 15.397 8.2437V51.6366C15.397 53.0653 16.5552 54.2236 17.9839 54.2236H51.016C52.4447 54.2236 53.6029 53.0653 53.6029 51.6366V8.2437C53.6029 6.81497 52.4447 5.65674 51.016 5.65674V5.65674Z" fill="white"></path><path d="M51.0161 5.65674H48.1483V54.2236H51.0161C52.4448 54.2236 53.6031 53.0653 53.6031 51.6366V8.2437C53.6031 6.81497 52.4448 5.65674 51.0161 5.65674V5.65674Z" fill="#B3BECE"></path><path d="M41.213 8.53722H27.7868C26.9374 8.53722 26.2488 7.84863 26.2488 6.99918V4.3144C26.2488 3.46495 26.9374 2.77637 27.7868 2.77637H41.2131C42.0625 2.77637 42.7511 3.46495 42.7511 4.3144V6.99918C42.751 7.84863 42.0624 8.53722 41.213 8.53722Z" fill="#B3BECE"></path><path d="M41.2131 2.77637H37.2964V8.53722H41.2131C42.0626 8.53722 42.7511 7.84863 42.7511 6.99918V4.3144C42.7511 3.46495 42.0626 2.77637 41.2131 2.77637V2.77637Z" fill="#02275D"></path><path d="M24.8645 19.9629H21.414C20.6915 19.9629 20.106 19.3773 20.106 18.6549V15.2045C20.106 14.4821 20.6915 13.8965 21.414 13.8965H24.8645C25.5869 13.8965 26.1725 14.4821 26.1725 15.2045V18.655C26.1725 19.3773 25.5869 19.9629 24.8645 19.9629Z" fill="#B3BECE"></path><path d="M24.8645 32.9733H21.414C20.6915 32.9733 20.106 32.3877 20.106 31.6653V28.2148C20.106 27.4923 20.6915 26.9067 21.414 26.9067H24.8645C25.5869 26.9067 26.1725 27.4923 26.1725 28.2148V31.6653C26.1725 32.3877 25.5869 32.9733 24.8645 32.9733Z" fill="#B3BECE"></path><path d="M24.8645 45.984H21.414C20.6915 45.984 20.106 45.3984 20.106 44.676V41.2255C20.106 40.5031 20.6915 39.9175 21.414 39.9175H24.8645C25.5869 39.9175 26.1725 40.5031 26.1725 41.2255V44.676C26.1725 45.3984 25.5869 45.984 24.8645 45.984Z" fill="#B3BECE"></path><path d="M40.4628 19.6982H32.0317C31.603 19.6982 31.2554 19.3507 31.2554 18.9219C31.2554 18.493 31.603 18.1455 32.0317 18.1455H40.4628C40.8915 18.1455 41.2391 18.493 41.2391 18.9219C41.2391 19.3507 40.8916 19.6982 40.4628 19.6982Z" fill="#02275D"></path><path d="M48.8939 15.7134H32.0317C31.603 15.7134 31.2554 15.3659 31.2554 14.937C31.2554 14.5081 31.603 14.1606 32.0317 14.1606H48.8939C49.3227 14.1606 49.6703 14.5081 49.6703 14.937C49.6703 15.3659 49.3227 15.7134 48.8939 15.7134Z" fill="#02275D"></path><path d="M40.4628 32.709H32.0317C31.603 32.709 31.2554 32.3615 31.2554 31.9326C31.2554 31.5038 31.603 31.1562 32.0317 31.1562H40.4628C40.8915 31.1562 41.2391 31.5038 41.2391 31.9326C41.2391 32.3615 40.8916 32.709 40.4628 32.709Z" fill="#02275D"></path><path d="M48.8939 28.7236H32.0317C31.603 28.7236 31.2554 28.3761 31.2554 27.9473C31.2554 27.5184 31.603 27.1709 32.0317 27.1709H48.8939C49.3227 27.1709 49.6703 27.5184 49.6703 27.9473C49.6703 28.3761 49.3227 28.7236 48.8939 28.7236Z" fill="#02275D"></path><path d="M40.4628 45.7197H32.0317C31.603 45.7197 31.2554 45.3722 31.2554 44.9434C31.2554 44.5145 31.603 44.167 32.0317 44.167H40.4628C40.8915 44.167 41.2391 44.5145 41.2391 44.9434C41.2391 45.3722 40.8916 45.7197 40.4628 45.7197Z" fill="#02275D"></path><path d="M48.8939 41.7344H32.0317C31.603 41.7344 31.2554 41.3869 31.2554 40.958C31.2554 40.5291 31.603 40.1816 32.0317 40.1816H48.8939C49.3227 40.1816 49.6703 40.5291 49.6703 40.958C49.6703 41.3869 49.3227 41.7344 48.8939 41.7344Z" fill="#02275D"></path><path d="M41.2131 9.31348H27.7867C26.5106 9.31348 25.4723 8.27532 25.4723 6.99918V4.3144C25.4724 3.03826 26.5106 2 27.7867 2H41.213C42.4891 2 43.5274 3.03826 43.5274 4.3144V6.99918C43.5274 8.27532 42.4892 9.31348 41.2131 9.31348ZM27.7867 3.55273C27.3667 3.55273 27.025 3.89444 27.025 4.3144V6.99918C27.025 7.41915 27.3667 7.76075 27.7867 7.76075H41.213C41.633 7.76075 41.9747 7.41904 41.9747 6.99918V4.3144C41.9747 3.89434 41.633 3.55273 41.213 3.55273H27.7867Z" fill="#02275D"></path><path d="M24.8645 20.7393H21.414C20.2646 20.7393 19.3296 19.8042 19.3296 18.6549V15.2045C19.3296 14.0552 20.2646 13.1201 21.414 13.1201H24.8645C26.0138 13.1201 26.9489 14.0552 26.9489 15.2045V18.655C26.9489 19.8042 26.0138 20.7393 24.8645 20.7393ZM21.414 14.6729C21.1208 14.6729 20.8823 14.9113 20.8823 15.2045V18.655C20.8823 18.9481 21.1208 19.1866 21.414 19.1866H24.8645C25.1576 19.1866 25.3961 18.9481 25.3961 18.655V15.2045C25.3961 14.9113 25.1576 14.6729 24.8645 14.6729H21.414Z" fill="#02275D"></path><path d="M24.8645 33.7496H21.414C20.2646 33.7496 19.3296 32.8146 19.3296 31.6653V28.2148C19.3296 27.0654 20.2646 26.1304 21.414 26.1304H24.8645C26.0138 26.1304 26.9489 27.0654 26.9489 28.2148V31.6653C26.9489 32.8146 26.0138 33.7496 24.8645 33.7496ZM21.414 27.6831C21.1208 27.6831 20.8823 27.9216 20.8823 28.2148V31.6653C20.8823 31.9584 21.1208 32.1969 21.414 32.1969H24.8645C25.1576 32.1969 25.3961 31.9584 25.3961 31.6653V28.2148C25.3961 27.9216 25.1576 27.6831 24.8645 27.6831H21.414Z" fill="#02275D"></path><path d="M24.8645 46.7605H21.414C20.2646 46.7605 19.3296 45.8254 19.3296 44.676V41.2256C19.3296 40.0762 20.2646 39.1411 21.414 39.1411H24.8645C26.0138 39.1411 26.9489 40.0762 26.9489 41.2256V44.676C26.9489 45.8254 26.0138 46.7605 24.8645 46.7605ZM21.414 40.694C21.1208 40.694 20.8823 40.9326 20.8823 41.2257V44.6761C20.8823 44.9693 21.1208 45.2079 21.414 45.2079H24.8645C25.1576 45.2079 25.3961 44.9693 25.3961 44.6761V41.2257C25.3961 40.9326 25.1576 40.694 24.8645 40.694H21.414Z" fill="#02275D"></path><path d="M51.016 55H17.9839C16.1293 55 14.6206 53.4912 14.6206 51.6366V8.24359C14.6206 6.38911 16.1294 4.88037 17.9839 4.88037H22.6364C23.0652 4.88037 23.4128 5.22787 23.4128 5.65674C23.4128 6.0856 23.0652 6.43311 22.6364 6.43311H17.9839C16.9855 6.43311 16.1733 7.24529 16.1733 8.24359V51.6365C16.1733 52.6349 16.9856 53.4471 17.9839 53.4471H51.016C52.0144 53.4471 52.8266 52.6348 52.8266 51.6365V8.24359C52.8266 7.24519 52.0143 6.43311 51.016 6.43311H46.3635C45.9347 6.43311 45.5871 6.0856 45.5871 5.65674C45.5871 5.22787 45.9347 4.88037 46.3635 4.88037H51.016C52.8706 4.88037 54.3793 6.38911 54.3793 8.24359V51.6365C54.3793 53.4912 52.8705 55 51.016 55Z" fill="#02275D"></path></g><defs><clipPath id="clip0"><rect width="53" height="53" fill="white" transform="translate(8 2)"></rect></clipPath></defs></svg>