<svg width="70" height="70" viewBox="0 0 70 70" fill="none"><path opacity="0.1" d="M62.0342 59.618C60.6224 62.613 57.754 64.6158 54.7829 65.9366C52.4042 66.9871 49.889 67.6769 47.3169 67.9847C46.8243 68.0448 46.3306 68.0914 45.8339 68.1245C44.5677 68.2094 43.2964 68.208 42.0302 68.1202C41.2678 68.0681 40.5084 67.9848 39.7522 67.8705C37.123 67.4762 34.5601 66.7089 32.1366 65.5907C31.4363 65.2668 30.7513 64.9133 30.0805 64.53C28.9588 63.8913 27.885 63.1691 26.8661 62.3694C26.6412 62.1924 26.4182 62.0115 26.1984 61.8268L26.1078 61.7508C25.9358 61.6044 25.7648 61.4546 25.5907 61.3093C25.3017 61.0605 24.9952 60.8343 24.6726 60.6328C24.6512 60.6197 24.6299 60.6065 24.6075 60.594C24.5474 60.5585 24.4874 60.5251 24.4253 60.4935C24.298 60.4276 24.1678 60.3685 24.0354 60.3164C23.4217 60.0759 22.7641 59.9885 22.0974 60.0033C21.9865 60.0033 21.8755 60.0109 21.7646 60.0185C21.6099 60.0295 21.4542 60.0459 21.2984 60.0667L21.2414 60.0748C20.7467 60.1468 20.2572 60.2548 19.7777 60.3978C19.0367 60.6164 18.3089 60.8896 17.5761 61.136C17.2656 61.2415 16.9542 61.342 16.6397 61.4322L16.5705 61.4519C16.1236 61.5811 15.6696 61.679 15.2096 61.7448C14.1652 61.8821 13.1036 61.7943 12.0939 61.4869L12.0593 61.4765L11.9941 61.4569L11.9056 61.4284C11.756 61.3803 11.6084 61.3277 11.4629 61.2705L11.3733 61.2355C11.2318 61.1794 11.0934 61.1191 10.957 61.0546L10.8684 61.0131C10.727 60.9454 10.5885 60.8737 10.4521 60.7983C10.4033 60.7721 10.3554 60.7437 10.3076 60.717C10.163 60.6338 10.0206 60.5468 9.88214 60.4557C9.73455 60.3592 9.58996 60.2584 9.4495 60.1535C9.38436 60.1055 9.31921 60.0561 9.2561 60.0055C8.88764 59.7163 8.54364 59.3971 8.22607 59.0508C8.20877 59.0328 8.19247 59.0142 8.17618 58.9962C8.0917 58.9021 8.00822 58.8066 7.92781 58.7087C7.89829 58.6727 7.8688 58.6366 7.83928 58.5994C7.7436 58.4799 7.652 58.3578 7.56344 58.2328C7.55021 58.2148 7.53695 58.1962 7.52474 58.1781C7.16136 57.6618 6.8601 57.1022 6.62802 56.5115C6.61988 56.4935 6.61378 56.4748 6.60665 56.4568C6.53642 56.2692 6.47127 56.0785 6.41326 55.8847C6.38883 55.8039 6.36646 55.7208 6.3461 55.6399C6.33897 55.6159 6.33282 55.5912 6.32672 55.5672C6.03357 54.3798 6 53.1453 6 51.9181C6 51.7749 6 51.6319 6 51.4891C6.00814 49.5038 6.03867 47.4847 6.32367 45.5269C6.32367 45.5132 6.32673 45.4995 6.32877 45.4863C6.42445 44.8273 6.55373 44.1738 6.71761 43.529C6.88861 42.8524 7.10745 42.1895 7.3721 41.5454C8.0276 39.9607 8.98031 38.5187 10.0389 37.182C11.3143 35.5738 12.7769 34.0897 14.4045 32.8651C14.6386 32.6892 14.8757 32.5183 15.1159 32.3526L15.2269 32.2777C15.2656 32.2509 15.3042 32.223 15.3439 32.1995C15.4233 32.145 15.5027 32.0936 15.5842 32.0417L15.6738 31.9837L15.8468 31.8744L15.8997 31.8433L15.9913 31.7886L16.0819 31.734C16.1888 31.6695 16.2966 31.6065 16.4045 31.5449C16.8697 31.2787 17.3451 31.0353 17.8316 30.8148C17.9751 30.7497 18.1196 30.6868 18.2652 30.6263C18.9248 30.3502 19.6027 30.1218 20.2928 29.9427C20.5482 29.8765 20.8048 29.8181 21.0633 29.7679C21.3676 29.7074 21.674 29.6573 21.9824 29.6176C22.472 29.5542 22.9657 29.5165 23.4593 29.5045C26.9313 29.4176 30.4388 30.5794 33.1595 32.8062C34.2435 33.6935 35.2186 34.7444 36.436 35.4247C37.4996 36.017 38.7435 36.2624 39.8825 35.7962C40.823 35.4111 41.4357 35.2198 42.4923 35.2782C44.6786 35.4049 46.8345 35.8683 48.8875 36.6531C48.9709 36.6842 49.0534 36.7165 49.1359 36.7487C54.4898 38.8553 59.0925 43.0383 61.4835 48.4137C61.5466 48.5558 61.6076 48.6989 61.6677 48.8432C63.0937 52.2667 63.6088 56.2803 62.0342 59.618Z" fill="#02275D"></path><path d="M42.1146 1H12.1427C11.8628 1.00032 11.5951 1.11193 11.3976 1.3104C11.2002 1.50885 11.0892 1.77792 11.0892 2.05857V42.7729C11.0892 43.0535 11.2002 43.3227 11.3976 43.521C11.5951 43.7195 11.8628 43.8312 12.1427 43.8315H42.1146C42.3935 43.8312 42.6611 43.7195 42.8586 43.521C43.0561 43.3227 43.167 43.0535 43.1681 42.7729V2.05857C43.167 1.77792 43.0561 1.50885 42.8586 1.3104C42.6611 1.11194 42.3935 1.00032 42.1146 1Z" fill="#F2F2F2"></path><path d="M13.068 2.30322C12.8736 2.30654 12.6873 2.38737 12.552 2.52799C12.4166 2.6686 12.3422 2.85754 12.3443 3.05335V41.7789C12.3422 41.9747 12.4166 42.1637 12.552 42.3042C12.6873 42.4449 12.8736 42.5257 13.068 42.529H41.1884C41.3838 42.5257 41.5691 42.4449 41.7044 42.3042C41.8398 42.1637 41.9151 41.9747 41.9121 41.7789V3.05335C41.9151 2.85754 41.8398 2.6686 41.7044 2.52799C41.5691 2.38737 41.3838 2.30654 41.1884 2.30322H13.068Z" fill="white"></path><path d="M14.5317 4.09424C14.264 4.09424 14.0461 4.34157 14.0461 4.64562V9.97569C14.0461 10.2797 14.264 10.5271 14.5317 10.5271H39.7246C39.9923 10.5271 40.2112 10.2797 40.2112 9.97569V4.64562C40.2112 4.34157 39.9923 4.09424 39.7246 4.09424H14.5317Z" fill="#02275D"></path><path d="M14.5317 13.1123C14.4014 13.1143 14.2772 13.1684 14.1856 13.2626C14.095 13.3568 14.0442 13.4835 14.0462 13.6149V25.0072C14.0442 25.1386 14.095 25.2653 14.1856 25.3595C14.2772 25.4537 14.4014 25.5078 14.5317 25.5098H39.7247C39.856 25.5078 39.9802 25.4537 40.0718 25.3595C40.1624 25.2653 40.2123 25.1386 40.2113 25.0072V13.6149C40.2123 13.4835 40.1624 13.3568 40.0718 13.2626C39.9802 13.1684 39.856 13.1143 39.7247 13.1123H14.5317Z" fill="#02275D"></path><path d="M37.0926 4.84766H17.1649V5.98766H37.0926V4.84766Z" fill="white"></path><path d="M37.1333 7.25H17.2057V7.77929H37.1333V7.25Z" fill="white"></path><path d="M37.1333 8.18604H17.2057V8.71532H37.1333V8.18604Z" fill="white"></path><path d="M37.1333 9.12256H17.2057V9.65185H37.1333V9.12256Z" fill="white"></path><path d="M29.0047 25.5303H38.1757C38.2337 25.5303 38.2906 25.5129 38.3395 25.4803C38.3883 25.4478 38.4261 25.4013 38.4484 25.3472C38.4708 25.2929 38.4769 25.2333 38.4647 25.1757C38.4535 25.1182 38.426 25.0652 38.3843 25.0237L32.5153 19.1237C32.4593 19.0681 32.385 19.037 32.3066 19.037C32.2283 19.037 32.153 19.0681 32.098 19.1237L30.6384 20.5909C30.5804 20.6488 30.5122 20.6946 30.4368 20.7259C30.3615 20.7572 30.2811 20.7732 30.1997 20.7732C30.1193 20.7732 30.0379 20.7572 29.9636 20.7259C29.8883 20.6946 29.82 20.6488 29.762 20.5909L25.1908 15.9955C25.1348 15.9399 25.0605 15.9087 24.9821 15.9087C24.9038 15.9087 24.8284 15.9399 24.7735 15.9955L15.8326 24.983C15.7909 25.0245 15.7624 25.0775 15.7512 25.135C15.74 25.1926 15.7461 25.2522 15.7685 25.3065C15.7909 25.3606 15.8285 25.407 15.8774 25.4396C15.9252 25.4722 15.9822 25.4896 16.0413 25.4896H29.0169L29.0047 25.5303Z" fill="white"></path><path d="M18.0962 16.9397C18.7232 16.9397 19.2302 16.4293 19.2302 15.7997C19.2302 15.1701 18.7232 14.6597 18.0962 14.6597C17.4703 14.6597 16.9624 15.1701 16.9624 15.7997C16.9624 16.4293 17.4703 16.9397 18.0962 16.9397Z" fill="white"></path><path d="M14.5317 28.1772C14.4014 28.1792 14.2772 28.2332 14.1856 28.3275C14.095 28.4217 14.0442 28.5485 14.0462 28.6798V40.0721C14.0442 40.2034 14.095 40.3302 14.1856 40.4244C14.2772 40.5187 14.4014 40.5727 14.5317 40.5747H39.7247C39.856 40.5727 39.9802 40.5187 40.0718 40.4244C40.1624 40.3302 40.2123 40.2034 40.2113 40.0721V28.6798C40.2123 28.5485 40.1624 28.4217 40.0718 28.3275C39.9802 28.2332 39.856 28.1792 39.7247 28.1772H14.5317Z" fill="#02275D"></path><path d="M29.0047 40.5947H38.1757C38.2337 40.5947 38.2906 40.5773 38.3395 40.5447C38.3883 40.512 38.4261 40.4657 38.4484 40.4114C38.4708 40.3573 38.4769 40.2975 38.4647 40.24C38.4535 40.1824 38.426 40.1296 38.3843 40.0881L32.5153 34.1881C32.4593 34.1326 32.384 34.1013 32.3066 34.1013C32.2283 34.1013 32.153 34.1326 32.098 34.1881L30.6384 35.6552C30.5804 35.713 30.5122 35.7589 30.4368 35.7903C30.3615 35.8215 30.2811 35.8376 30.1997 35.8376C30.1183 35.8376 30.0379 35.8215 29.9636 35.7903C29.8883 35.7589 29.82 35.713 29.762 35.6552L25.1908 31.0599C25.1348 31.0043 25.0605 30.9731 24.9821 30.9731C24.9038 30.9731 24.8284 31.0043 24.7735 31.0599L15.8326 40.0474C15.7909 40.0889 15.7624 40.1417 15.7512 40.1993C15.74 40.2568 15.7461 40.3166 15.7685 40.3707C15.7909 40.425 15.8285 40.4713 15.8774 40.504C15.9252 40.5365 15.9822 40.5539 16.0413 40.5539H29.0169L29.0047 40.5947Z" fill="white"></path><path d="M18.0962 32.0041C18.7232 32.0041 19.2302 31.4937 19.2302 30.8641C19.2302 30.2345 18.7232 29.7241 18.0962 29.7241C17.4703 29.7241 16.9624 30.2345 16.9624 30.8641C16.9624 31.4937 17.4703 32.0041 18.0962 32.0041Z" fill="white"></path><path d="M22.6736 10.3643C22.4802 10.3645 22.295 10.4417 22.1586 10.5791C22.0212 10.7165 21.9448 10.9028 21.9448 11.0971V51.8114C21.9448 52.0057 22.0212 52.1919 22.1586 52.3294C22.295 52.4668 22.4802 52.544 22.6736 52.5442H52.6455C52.8389 52.544 53.0241 52.4668 53.1605 52.3294C53.298 52.192 53.3743 52.0057 53.3743 51.8114V11.0971C53.3743 10.9028 53.298 10.7165 53.1605 10.5791C53.0241 10.4417 52.8389 10.3645 52.6455 10.3643H22.6736Z" fill="#02275D"></path><path d="M23.5581 11.5044C23.3637 11.5077 23.1784 11.5885 23.042 11.7291C22.9067 11.8697 22.8324 12.0587 22.8354 12.2545V50.98C22.8324 51.1758 22.9067 51.3648 23.042 51.5053C23.1784 51.646 23.3637 51.7268 23.5581 51.7302H51.6785C51.8739 51.7268 52.0592 51.646 52.1945 51.5053C52.3299 51.3648 52.4053 51.1758 52.4022 50.98V12.2545C52.4053 12.0587 52.3299 11.8697 52.1945 11.7291C52.0592 11.5885 51.8739 11.5077 51.6785 11.5044H23.5581Z" fill="white"></path><path d="M27.9583 17.1377C27.8728 17.1378 27.7904 17.1721 27.7293 17.2332C27.6693 17.2942 27.6346 17.3771 27.6346 17.4634V18.9583C27.6346 19.0447 27.6693 19.1275 27.7293 19.1886C27.7904 19.2497 27.8728 19.284 27.9583 19.2841H47.0757C47.1622 19.284 47.2447 19.2497 47.3048 19.1886C47.3658 19.1275 47.3994 19.0447 47.4004 18.9583V17.4634C47.3994 17.3771 47.3658 17.2942 47.3048 17.2332C47.2447 17.1721 47.1622 17.1378 47.0757 17.1377H27.9583Z" fill="#02275D"></path><path d="M27.8382 22.0854C27.8158 22.0854 27.7954 22.0941 27.7801 22.1093C27.7649 22.1245 27.7567 22.1453 27.7567 22.1669V22.7504C27.7567 22.7721 27.7649 22.7928 27.7801 22.808C27.7954 22.8233 27.8158 22.8318 27.8382 22.8318H47.2792C47.3006 22.8318 47.321 22.8233 47.3363 22.808C47.3515 22.7928 47.3597 22.7721 47.3607 22.7504V22.1669C47.3597 22.1453 47.3515 22.1245 47.3363 22.1093C47.321 22.094 47.3006 22.0854 47.2792 22.0854H27.8382Z" fill="#02275D"></path><path d="M27.8382 23.9819C27.8158 23.9819 27.7954 23.9906 27.7801 24.0059C27.7649 24.0211 27.7567 24.0418 27.7567 24.0634V24.647C27.7567 24.6686 27.7649 24.6892 27.7801 24.7045C27.7954 24.7198 27.8158 24.7283 27.8382 24.7284H47.2792C47.3006 24.7283 47.321 24.7198 47.3363 24.7045C47.3515 24.6892 47.3597 24.6686 47.3607 24.647V24.0634C47.3597 24.0418 47.3515 24.0211 47.3363 24.0059C47.321 23.9906 47.3006 23.9819 47.2792 23.9819H27.8382Z" fill="#02275D"></path><path d="M27.8382 25.8789C27.8158 25.8789 27.7954 25.8875 27.7801 25.9027C27.7649 25.918 27.7567 25.9388 27.7567 25.9603V26.5439C27.7567 26.5655 27.7649 26.5861 27.7801 26.6014C27.7954 26.6167 27.8158 26.6253 27.8382 26.6253H47.2792C47.3006 26.6253 47.321 26.6167 47.3363 26.6014C47.3515 26.5861 47.3597 26.5655 47.3607 26.5439V25.9603C47.3597 25.9388 47.3515 25.918 47.3363 25.9027C47.321 25.8875 47.3006 25.8789 47.2792 25.8789H27.8382Z" fill="#02275D"></path><path d="M27.7973 29.668C27.7749 29.668 27.7546 29.6766 27.7393 29.6919C27.724 29.7072 27.7159 29.7278 27.7159 29.7494V30.3329C27.7159 30.3545 27.724 30.3753 27.7393 30.3905C27.7546 30.4058 27.7749 30.4144 27.7973 30.4144H47.2385C47.2598 30.4144 47.2802 30.4058 47.2954 30.3905C47.3107 30.3753 47.3189 30.3545 47.3189 30.3329V29.7494C47.3189 29.7278 47.3107 29.7071 47.2954 29.6918C47.2802 29.6766 47.2598 29.668 47.2385 29.668H27.7973Z" fill="#02275D"></path><path d="M27.7973 31.5649C27.7749 31.5649 27.7546 31.5735 27.7393 31.5888C27.724 31.604 27.7159 31.6248 27.7159 31.6464V32.2299C27.7159 32.2515 27.724 32.2722 27.7393 32.2874C27.7546 32.3027 27.7749 32.3113 27.7973 32.3113H47.2385C47.2598 32.3113 47.2802 32.3027 47.2954 32.2874C47.3107 32.2722 47.3189 32.2515 47.3189 32.2299V31.6464C47.3189 31.6248 47.3107 31.604 47.2954 31.5888C47.2802 31.5735 47.2598 31.5649 47.2385 31.5649H27.7973Z" fill="#02275D"></path><path d="M27.7973 33.4614C27.7749 33.4614 27.7546 33.47 27.7393 33.4852C27.724 33.5005 27.7159 33.5213 27.7159 33.5429V34.1264C27.7159 34.1481 27.724 34.1687 27.7393 34.184C27.7546 34.1993 27.7749 34.2078 27.7973 34.2078H47.2385C47.2598 34.2078 47.2802 34.1993 47.2954 34.184C47.3107 34.1687 47.3189 34.1481 47.3189 34.1264V33.5429C47.3189 33.5213 47.3107 33.5005 47.2954 33.4852C47.2802 33.47 47.2598 33.4614 47.2385 33.4614H27.7973Z" fill="#02275D"></path><path d="M27.7973 35.3682C27.7749 35.3682 27.7546 35.3768 27.7393 35.392C27.724 35.4072 27.7159 35.428 27.7159 35.4496V36.0332C27.7159 36.0548 27.724 36.0755 27.7393 36.0907C27.7546 36.106 27.7749 36.1146 27.7973 36.1147H47.2385C47.2598 36.1146 47.2802 36.106 47.2954 36.0907C47.3107 36.0755 47.3189 36.0548 47.3189 36.0332V35.4496C47.3189 35.428 47.3107 35.4072 47.2954 35.392C47.2802 35.3767 47.2598 35.3682 47.2385 35.3682H27.7973Z" fill="#02275D"></path><path d="M27.7973 37.2646C27.7749 37.2646 27.7546 37.2733 27.7393 37.2886C27.724 37.3038 27.7159 37.3245 27.7159 37.3461V37.9297C27.7159 37.9513 27.724 37.972 27.7393 37.9872C27.7546 38.0025 27.7749 38.0111 27.7973 38.0111H47.2385C47.2598 38.0111 47.2802 38.0025 47.2954 37.9872C47.3107 37.972 47.3189 37.9513 47.3189 37.9297V37.3461C47.3189 37.3245 47.3107 37.3038 47.2954 37.2886C47.2802 37.2733 47.2598 37.2646 47.2385 37.2646H27.7973Z" fill="#02275D"></path><path d="M27.7973 39.1611C27.7749 39.1612 27.7546 39.1698 27.7393 39.1851C27.724 39.2003 27.7159 39.221 27.7159 39.2426V39.8262C27.7159 39.8478 27.724 39.8685 27.7393 39.8838C27.7546 39.899 27.7749 39.9076 27.7973 39.9076H47.2385C47.2598 39.9076 47.2802 39.8991 47.2954 39.8838C47.3107 39.8685 47.3189 39.8478 47.3189 39.8262V39.2426C47.3189 39.221 47.3107 39.2003 47.2954 39.1851C47.2802 39.1698 47.2598 39.1612 47.2385 39.1611H27.7973Z" fill="#02275D"></path><path d="M27.7973 41.0679C27.7749 41.068 27.7546 41.0765 27.7393 41.0918C27.724 41.1071 27.7159 41.1277 27.7159 41.1493V41.7329C27.7159 41.7545 27.724 41.7753 27.7393 41.7905C27.7546 41.8057 27.7749 41.8144 27.7973 41.8144H47.2385C47.2598 41.8144 47.2802 41.8058 47.2954 41.7905C47.3107 41.7753 47.3189 41.7545 47.3189 41.7329V41.1493C47.3189 41.1277 47.3107 41.1071 47.2954 41.0918C47.2802 41.0765 47.2598 41.068 47.2385 41.0679H27.7973Z" fill="#02275D"></path><path d="M27.7973 42.9648C27.7749 42.9648 27.7546 42.9735 27.7393 42.9888C27.724 43.004 27.7159 43.0247 27.7159 43.0463V43.6299C27.7159 43.6515 27.724 43.6722 27.7393 43.6874C27.7546 43.7027 27.7749 43.7113 27.7973 43.7113H47.2385C47.2598 43.7113 47.2802 43.7027 47.2954 43.6874C47.3107 43.6722 47.3189 43.6515 47.3189 43.6299V43.0463C47.3189 43.0247 47.3107 43.004 47.2954 42.9888C47.2802 42.9735 47.2598 42.9648 47.2385 42.9648H27.7973Z" fill="#02275D"></path><path d="M27.7973 44.8613C27.7749 44.8614 27.7546 44.87 27.7393 44.8853C27.724 44.9005 27.7159 44.9212 27.7159 44.9428V45.5264C27.7159 45.548 27.724 45.5686 27.7393 45.5839C27.7546 45.5992 27.7749 45.6078 27.7973 45.6078H47.2385C47.2598 45.6078 47.2802 45.5993 47.2954 45.584C47.3107 45.5687 47.3189 45.548 47.3189 45.5264V44.9428C47.3189 44.9212 47.3107 44.9005 47.2954 44.8853C47.2802 44.87 47.2598 44.8614 47.2385 44.8613H27.7973Z" fill="#02275D"></path><path d="M51.998 55.9648C55.2633 55.9648 57.9107 53.3034 57.9107 50.0205C57.9107 46.7375 55.2633 44.0762 51.998 44.0762C48.7317 44.0762 46.0842 46.7375 46.0842 50.0205C46.0842 53.3034 48.7317 55.9648 51.998 55.9648Z" fill="#02275D"></path><path d="M51.4332 52.5294L49.6631 50.2418L50.6932 49.437L51.5309 50.5202L54.3615 47.5161L55.3091 48.4176L51.4332 52.5294Z" fill="white"></path></svg>